# xmcd
# Track frame offsets:
# 150
# 17912
# 32412
# 52000
# 74320
# 108377
# 126570
# 150305
# 164545
# 177960
# 212967
# 232840
# 255832
#
# Disc length: 3602 seconds
# Revision: 0
# Processed by: cddbd v1.4PL0 Copyright (c) Steve Scherf et al.
# Submitted via: VisiTrax 2.9.5.181 - For more info visit www.synapsa.com
#
DISCID=aa0e100d
DTITLE=Mike Dugan and the Blues Misssion - A Step Ahead of Trouble
DYEAR=2000
DGENRE=Blues
TTITLE0=A STEP AHEAD OF TROUBLE
TTITLE1=DON'T MESS WITH ME
TTITLE2=ITS NEVER TOO LATE
TTITLE3=AIN'T DOIN' TOO BAD
TTITLE4=MUDHOLE BLUES
TTITLE5=SIMPLIFY IT
TTITLE6=GET USED TO IT
TTITLE7=TREADIN' WATER
TTITLE8=NICKLEPLATED
TTITLE9=NO PLACE TO PARK
TTITLE10=JUST NOT MYSELF
TTITLE11=FIRST DATE BLUES
TTITLE12=YOU'RE GONNA LEARN THE HARD WAY
EXTD=
EXTT0=
EXTT1=
EXTT2=
EXTT3=
EXTT4=
EXTT5=
EXTT6=
EXTT7=
EXTT8=
EXTT9=
EXTT10=
EXTT11=
EXTT12=
PLAYORDER=
